<?xml version="1.0" standalone="no"?>
<!DOCTYPE svg PUBLIC "-//W3C//DTD SVG 20010904//EN"
 "http://www.w3.org/TR/2001/REC-SVG-20010904/DTD/svg10.dtd">
<svg version="1.0" xmlns="http://www.w3.org/2000/svg"
 width="200.000000pt" height="200.000000pt" viewBox="0 0 200.000000 200.000000"
 preserveAspectRatio="xMidYMid meet">

<g transform="translate(0.000000,200.000000) scale(0.100000,-0.100000)"
fill="#000000" stroke="none">
<path d="M1700 1327 c-85 -5 -158 -14 -161 -19 -4 -6 -19 -7 -35 -4 -16 4 -75
-2 -131 -12 -57 -10 -103 -14 -103 -9 0 11 -150 3 -520 -29 -157 -13 -329 -26
-382 -29 -54 -2 -109 -7 -124 -11 l-26 -7 7 -106 c3 -58 10 -131 15 -161 5
-30 10 -73 11 -95 2 -22 7 -45 12 -52 5 -7 8 -27 6 -45 -5 -80 -27 -73 239
-72 171 1 258 5 312 16 42 9 77 12 81 7 6 -10 206 1 599 34 151 13 289 24 305
24 17 0 56 3 88 7 l59 8 -7 96 c-4 53 -9 106 -10 117 -14 117 -17 143 -22 165
-3 14 -8 61 -12 105 -7 94 15 86 -201 72z m-932 -197 c-4 -24 -1 -30 11 -28 8
2 18 14 21 28 4 16 14 26 28 28 25 4 26 0 9 -83 -11 -50 -17 -61 -35 -63 -19
-3 -22 1 -22 27 0 23 -4 29 -15 25 -8 -4 -15 -17 -15 -30 0 -19 -5 -24 -26
-24 -25 0 -26 2 -20 39 3 22 9 46 12 55 4 11 0 16 -13 16 -16 0 -22 -11 -32
-55 -11 -49 -15 -55 -37 -55 -19 0 -24 4 -20 18 3 9 8 34 12 55 l6 37 -51 0
c-28 0 -51 -4 -51 -10 0 -5 14 -10 31 -10 44 0 36 -33 -11 -41 l-35 -6 33 -2
c25 -1 32 -5 32 -21 0 -18 -7 -20 -61 -20 -53 0 -60 2 -55 18 2 9 10 43 16 75
l11 57 141 0 140 0 -4 -30z m864 25 c2 -3 -2 -36 -10 -75 l-15 -70 -339 0
c-186 0 -338 3 -338 6 0 3 4 24 9 47 6 23 12 54 16 70 l5 27 334 0 c183 0 335
-2 338 -5z m-32 -182 c0 -7 -11 -57 -25 -120 l-5 -23 -570 0 c-536 0 -570 1
-570 18 0 17 17 96 25 120 3 9 127 12 575 12 313 0 570 -3 570 -7z"/>
<path d="M1010 1100 c0 -11 5 -20 10 -20 6 0 10 -7 10 -16 0 -10 -6 -14 -15
-10 -8 3 -15 1 -15 -4 0 -16 30 -11 37 6 3 8 1 20 -6 27 -16 16 -14 30 4 23 8
-3 15 -1 15 4 0 6 -9 10 -20 10 -13 0 -20 -7 -20 -20z"/>
<path d="M1102 1114 c3 -3 2 -21 -2 -40 -4 -19 -4 -34 1 -34 5 0 9 9 9 21 0
11 5 29 10 40 9 15 7 19 -6 19 -10 0 -15 -2 -12 -6z"/>
<path d="M1176 1098 c-10 -38 -7 -58 8 -58 18 0 22 6 30 50 5 26 4 31 -3 20
-6 -8 -11 -25 -11 -37 0 -13 -5 -23 -10 -23 -7 0 -8 13 -4 35 7 39 0 48 -10
13z"/>
<path d="M1266 1098 c-10 -38 -7 -58 8 -58 18 0 22 6 31 48 6 27 4 32 -13 32
-12 0 -22 -9 -26 -22z m34 8 c0 -14 -21 -58 -26 -54 -8 8 7 58 17 58 5 0 9 -2
9 -4z"/>
<path d="M1356 1098 c-10 -40 -7 -58 12 -58 14 0 14 2 3 9 -12 7 -12 13 -3 24
7 7 9 17 5 21 -4 4 -1 11 7 16 13 8 13 10 -1 10 -9 0 -19 -10 -23 -22z"/>
<path d="M1436 1084 c-4 -20 -5 -39 -2 -42 3 -3 6 6 6 19 l1 24 13 -24 c13
-24 13 -24 20 14 4 20 5 40 2 43 -3 3 -6 -3 -6 -14 -1 -18 -1 -18 -14 -1 -12
16 -14 14 -20 -19z"/>
<path d="M1533 1078 c-3 -48 1 -47 15 5 8 27 7 37 -1 37 -7 0 -13 -18 -14 -42z"/>
<path d="M510 930 c-5 -10 -10 -29 -10 -41 0 -21 1 -21 25 5 29 31 31 42 10
50 -8 3 -19 -3 -25 -14z"/>
<path d="M597 933 c-3 -10 -8 -31 -11 -48 -6 -28 -5 -29 9 -11 15 20 15 20 16
0 0 -11 5 -5 11 15 10 35 5 61 -11 61 -5 0 -12 -8 -14 -17z m23 -8 c0 -8 -4
-15 -10 -15 -5 0 -7 7 -4 15 4 8 8 15 10 15 2 0 4 -7 4 -15z"/>
<path d="M692 937 c-14 -18 -21 -67 -10 -73 16 -10 38 17 38 47 0 32 -13 45
-28 26z m9 -54 c-9 -16 -10 -16 -11 4 0 12 3 30 7 40 7 16 8 16 11 -4 2 -12
-1 -30 -7 -40z"/>
<path d="M856 942 c-2 -4 -7 -24 -11 -45 -6 -32 -5 -37 11 -37 16 0 17 2 4 10
-11 7 -12 12 -3 21 6 6 9 18 6 25 -3 8 0 14 6 14 6 0 11 5 11 10 0 12 -17 13
-24 2z"/>
<path d="M943 942 c-16 -11 -26 -69 -13 -77 7 -4 17 -2 23 4 9 9 7 10 -7 5
-16 -6 -18 -4 -13 10 4 10 7 24 7 31 0 7 8 15 18 17 10 2 13 6 7 10 -6 4 -16
4 -22 0z"/>
<path d="M1023 901 l-2 -46 15 45 c7 25 14 45 14 46 0 0 -6 1 -13 1 -8 0 -13
-16 -14 -46z"/>
<path d="M1242 937 c-6 -7 -13 -24 -17 -38 -8 -34 13 -49 32 -24 24 34 11 93
-15 62z m13 -36 c-4 -17 -11 -31 -16 -31 -9 0 -3 43 8 63 10 17 15 -3 8 -32z"/>
<path d="M1417 944 c-11 -11 -8 -44 3 -44 6 0 10 -7 10 -16 0 -10 -6 -14 -15
-10 -8 3 -15 1 -15 -5 0 -6 8 -9 18 -7 18 3 31 48 13 48 -6 0 -11 5 -11 11 0
6 7 8 16 5 10 -4 14 -1 12 6 -5 14 -22 21 -31 12z"/>
<path d="M1500 924 c-15 -39 -12 -64 8 -63 10 0 12 3 5 6 -15 6 -17 33 -3 33
5 0 7 7 4 15 -4 8 -1 15 5 15 6 0 11 5 11 10 0 20 -21 9 -30 -16z"/>
<path d="M786 910 c-5 -19 -14 -38 -20 -42 -8 -6 -7 -8 2 -8 15 0 34 46 29 69
-2 9 -7 0 -11 -19z"/>
<path d="M1140 923 c0 -10 -3 -29 -6 -43 l-5 -25 15 25 15 25 1 -25 c1 -23 2
-23 10 -5 5 11 8 31 8 45 0 16 -2 19 -5 8 -2 -10 -9 -18 -15 -18 -5 0 -8 7 -4
15 3 8 1 15 -4 15 -6 0 -10 -8 -10 -17z"/>
<path d="M1316 908 c-7 -34 7 -59 24 -42 5 5 12 25 15 44 l5 35 -11 -37 c-14
-48 -30 -50 -22 -3 7 44 -2 46 -11 3z"/>
</g>
</svg>
